<svg preserveAspectRatio="none" overflow="visible" style="display: block;" width="48" height="48" viewBox="0 0 48 48" fill="none" xmlns="http://www.w3.org/2000/svg">
<g id="solar:city-bold">
<path id="Vector" fill-rule="evenodd" clip-rule="evenodd" d="M16 9C17.886 9 18.828 9 19.414 9.586C19.998 10.17 19.998 11.1076 19.998 12.9808V13V13.408C19.5927 13.3027 19.1887 13.2247 18.786 13.174C17.496 13 15.908 13 14.178 13H13.82C12.09 13 10.5 13 9.212 13.174C8.81067 13.226 8.40667 13.304 8 13.408V13C8 11.114 8 10.172 8.586 9.586C9.172 9 10.114 9 12 9H12.5H15.5H16Z" fill="#8662F1"/>
<path id="Vector_2" fill-rule="evenodd" clip-rule="evenodd" d="M5.39535 40.1935C5.02528 40.1935 4.67037 40.3413 4.40869 40.6045C4.14701 40.8677 4 41.2246 4 41.5968C4 41.9689 4.14701 42.3258 4.40869 42.589C4.67037 42.8522 5.02528 43 5.39535 43H42.6047C42.9747 43 43.3296 42.8522 43.5913 42.589C43.853 42.3258 44 41.9689 44 41.5968C44 41.2246 43.853 40.8677 43.5913 40.6045C43.3296 40.3413 42.9747 40.1935 42.6047 40.1935H40.7442V14.9762C40.7442 12.4691 40.7442 11.2136 40.0819 10.252C39.4195 9.29026 38.2512 8.84871 35.9144 7.96934C31.347 6.24615 29.0642 5.3855 27.4623 6.50061C25.8605 7.61946 25.8605 10.0705 25.8605 14.9762V20.0803H26.0279C27.6372 20.0803 29.1144 20.0803 30.3144 20.2431C31.6372 20.4208 33.0363 20.8418 34.1842 21.9981C35.3358 23.1543 35.7544 24.5613 35.933 25.8897C36.093 27.0984 36.093 28.584 36.093 30.2043V40.1935H33.3023V30.3708C33.3023 26.8421 33.3023 25.0796 32.2121 23.9832C31.1219 22.8868 29.3693 22.8868 25.8605 22.8868H22.1395C18.6307 22.8868 16.8781 22.8868 15.7879 23.9832C14.6977 25.0796 14.6977 26.8421 14.6977 30.3708V40.1935H11.907V30.2024C11.907 28.584 11.907 27.0984 12.0688 25.8916C12.2456 24.5613 12.6642 23.1543 13.814 21.9999C14.9637 20.8418 16.3628 20.4208 17.6837 20.2412C18.8856 20.0803 20.3628 20.0803 21.974 20.0803H22.1079C22.0335 18.329 21.8009 17.2551 21.0493 16.4992C19.9591 15.4028 18.2065 15.4028 14.6977 15.4028C11.1888 15.4028 9.43628 15.4028 8.34605 16.4992C7.25581 17.5956 7.25581 19.3581 7.25581 22.8868V40.1935H5.39535ZM18.8837 28.4998C18.8837 28.1276 19.0307 27.7707 19.2924 27.5075C19.5541 27.2444 19.909 27.0965 20.2791 27.0965H27.7209C28.091 27.0965 28.4459 27.2444 28.7076 27.5075C28.9693 27.7707 29.1163 28.1276 29.1163 28.4998C29.1163 28.8719 28.9693 29.2289 28.7076 29.492C28.4459 29.7552 28.091 29.903 27.7209 29.903H20.2791C19.909 29.903 19.5541 29.7552 19.2924 29.492C19.0307 29.2289 18.8837 28.8719 18.8837 28.4998ZM18.8837 34.1128C18.8837 33.7406 19.0307 33.3837 19.2924 33.1205C19.5541 32.8574 19.909 32.7095 20.2791 32.7095H27.7209C28.091 32.7095 28.4459 32.8574 28.7076 33.1205C28.9693 33.3837 29.1163 33.7406 29.1163 34.1128C29.1163 34.4849 28.9693 34.8419 28.7076 35.105C28.4459 35.3682 28.091 35.516 27.7209 35.516H20.2791C19.909 35.516 19.5541 35.3682 19.2924 35.105C19.0307 34.8419 18.8837 34.4849 18.8837 34.1128Z" fill="#8662F1"/>
</g>
</svg>
